<svg xmlns="http://www.w3.org/2000/svg" viewBox="0 0 24 24"><defs><style>.cls-1{fill:#fff;}</style></defs><title>background</title><g id="Layer_2" data-name="Layer 2"><g id="Layer_1-2" data-name="Layer 1"><path class="cls-1" d="M21.66,10.41H18.28V2.81A2.81,2.81,0,0,0,15.47,0H2.81A2.81,2.81,0,0,0,0,2.81V15.47a2.81,2.81,0,0,0,2.81,2.81h7.6v3.38A2.34,2.34,0,0,0,12.75,24h8.91A2.34,2.34,0,0,0,24,21.66V12.75A2.34,2.34,0,0,0,21.66,10.41ZM10.41,12.75v3.66H2.81a.94.94,0,0,1-.93-.94V2.81a.93.93,0,0,1,.93-.93H15.47a.94.94,0,0,1,.94.93v7.6H12.75A2.34,2.34,0,0,0,10.41,12.75Zm11.72,8.91a.48.48,0,0,1-.47.47H12.75a.48.48,0,0,1-.47-.47V12.75a.47.47,0,0,1,.47-.47h8.91a.48.48,0,0,1,.47.47Z"/></g></g></svg>