<svg xmlns="http://www.w3.org/2000/svg" viewBox="0 0 18.99 18.99"><defs><style>.cls-1{fill:#fff;}</style></defs><title>export</title><g id="Layer_2" data-name="Layer 2"><g id="Layer_1-2" data-name="Layer 1"><path class="cls-1" d="M16.82,19H2.18A2.18,2.18,0,0,1,0,16.82V5.34A2.18,2.18,0,0,1,2.18,3.17H5A.59.59,0,1,1,5,4.35H2.18a1,1,0,0,0-1,1V16.82a1,1,0,0,0,1,1H16.82a1,1,0,0,0,1-1V10.09a.59.59,0,0,1,1.18,0v6.73A2.17,2.17,0,0,1,16.82,19Z"/><path class="cls-1" d="M5.34,12.65H5.21a.6.6,0,0,1-.46-.57V10.88a7.72,7.72,0,0,1,7.71-7.71h.2V.59a.59.59,0,0,1,1-.41l5.15,5.34a.6.6,0,0,1,0,.83l-5.15,5.34a.59.59,0,0,1-1-.41V8.71h-.94a6.49,6.49,0,0,0-5.84,3.61A.6.6,0,0,1,5.34,12.65Zm7.12-8.3A6.53,6.53,0,0,0,6,10.07a7.64,7.64,0,0,1,5.73-2.55h1.54a.59.59,0,0,1,.59.59v1.7l3.73-3.87L13.85,2.07V3.76a.59.59,0,0,1-.59.59Z"/></g></g></svg>