<svg xmlns="http://www.w3.org/2000/svg" viewBox="0 0 30.19 24"><defs><style>.cls-1{fill:#fff;}</style></defs><title>language</title><g id="Layer_2" data-name="Layer 2"><g id="Layer_1-2" data-name="Layer 1"><path class="cls-1" d="M29.88,11.22l-7-7.39a1.13,1.13,0,0,0-1.65,1.55L27.5,12l-6.25,6.62a1.14,1.14,0,0,0,.83,1.91,1.11,1.11,0,0,0,.82-.36l7-7.39A1.14,1.14,0,0,0,29.88,11.22Z"/><path class="cls-1" d="M8.94,18.62,2.69,12,8.94,5.38A1.13,1.13,0,1,0,7.29,3.83l-7,7.39a1.14,1.14,0,0,0,0,1.56l7,7.39a1.11,1.11,0,0,0,.82.36,1.14,1.14,0,0,0,.83-1.91Z"/><path class="cls-1" d="M16.93,0a1.13,1.13,0,0,0-1.29,1L12.31,22.7A1.14,1.14,0,0,0,13.26,24h.18a1.12,1.12,0,0,0,1.11-1L17.87,1.3A1.13,1.13,0,0,0,16.93,0Z"/></g></g></svg>