<svg xmlns="http://www.w3.org/2000/svg" viewBox="0 0 15.58 17"><defs><style>.cls-1{fill:#fff;}</style></defs><title>share</title><g id="Layer_2" data-name="Layer 2"><g id="Layer_1-2" data-name="Layer 1"><path class="cls-1" d="M12.93,5.31a2.66,2.66,0,1,1,2.65-2.65A2.66,2.66,0,0,1,12.93,5.31Zm0-4.25a1.6,1.6,0,1,0,0,3.19,1.6,1.6,0,0,0,0-3.19Z"/><path class="cls-1" d="M12.93,17a2.66,2.66,0,1,1,2.65-2.66A2.66,2.66,0,0,1,12.93,17Zm0-4.25a1.6,1.6,0,1,0,1.59,1.59A1.6,1.6,0,0,0,12.93,12.75Z"/><path class="cls-1" d="M2.66,11.16A2.66,2.66,0,1,1,5.31,8.5,2.67,2.67,0,0,1,2.66,11.16Zm0-4.25A1.59,1.59,0,1,0,4.25,8.5,1.6,1.6,0,0,0,2.66,6.91Z"/><path class="cls-1" d="M4.51,8A.54.54,0,0,1,4,7.72.55.55,0,0,1,4.24,7l6.57-3.75a.55.55,0,0,1,.73.2.54.54,0,0,1-.2.73L4.77,7.91A.51.51,0,0,1,4.51,8Z"/><path class="cls-1" d="M11.08,13.83a.59.59,0,0,1-.26-.07L4.24,10A.55.55,0,0,1,4,9.28a.54.54,0,0,1,.73-.19l6.57,3.74a.54.54,0,0,1-.26,1Z"/></g></g></svg>