<svg xmlns="http://www.w3.org/2000/svg" viewBox="0 0 29.75 26.3"><defs><style>.cls-1{fill:#fff;}</style></defs><title>theme</title><g id="Layer_2" data-name="Layer 2"><g id="Layer_1-2" data-name="Layer 1"><path class="cls-1" d="M13.37,26.3c4.73,0,9.31-2.55,9.31-7a5.19,5.19,0,0,0-2.12-4c-1.84-1.73-1.84-2.58,0-4.31a5.17,5.17,0,0,0,2.12-3.94c0-3.36-2.6-5.68-5.88-6.59A13.37,13.37,0,0,0,1.92,6.34,13.05,13.05,0,0,0,1.92,20,13.27,13.27,0,0,0,13.37,26.3Zm-10-19A11.7,11.7,0,0,1,16.33,2.14c2.89.81,4.61,2.65,4.61,4.92,0,1.2-.73,1.88-1.57,2.67-2.52,2.36-2.65,4.38,0,6.86a3.57,3.57,0,0,1,1.57,2.67c0,3.53-3.92,5.3-7.55,5.3a11.59,11.59,0,0,1-10-5.5,11.28,11.28,0,0,1,0-11.81Z"/><path class="cls-1" d="M29.75,20A2.62,2.62,0,0,0,29,18.19l-.07-.06a54.11,54.11,0,0,0,.83-8.4,73.39,73.39,0,0,0-.58-8,2.09,2.09,0,0,0-2-1.68A2.11,2.11,0,0,0,25.1,1.83a72.68,72.68,0,0,0-.57,7.9,54.29,54.29,0,0,0,.82,8.4A2.62,2.62,0,0,0,24.52,20c0,1.89,1.65,5.24,1.84,5.62A.87.87,0,0,0,28,25.27C28,23.82,29.75,22,29.75,20Zm-2.92-18a.36.36,0,0,1,.35-.31s.23,0,.26.17A72.05,72.05,0,0,1,28,9.73c0,.81,0,1.65-.1,2.49H26.37c-.06-.84-.1-1.68-.1-2.49A71.52,71.52,0,0,1,26.83,2.05ZM26.53,14h1.22c-.15,1.44-.35,2.72-.47,3.47H27C26.88,16.68,26.68,15.4,26.53,14Zm.46,8.8A9.18,9.18,0,0,1,26.27,20a.87.87,0,0,1,.87-.87h0A.87.87,0,0,1,28,20h0a7.6,7.6,0,0,1-1,2.72Z"/><path class="cls-1" d="M6.05,15.68a2.61,2.61,0,1,0-2.62-2.61A2.61,2.61,0,0,0,6.05,15.68Zm0-3.48a.87.87,0,1,1-.88.87A.87.87,0,0,1,6.05,12.2Z"/><path class="cls-1" d="M10.84,16.84a2.62,2.62,0,1,0,.95,3.57A2.62,2.62,0,0,0,10.84,16.84Zm-.56,2.7A.87.87,0,1,1,10,18.35.87.87,0,0,1,10.28,19.54Z"/><path class="cls-1" d="M15.19,9.3a2.62,2.62,0,1,0-.95-3.57A2.61,2.61,0,0,0,15.19,9.3Zm.56-2.7a.87.87,0,1,1,.31,1.19A.87.87,0,0,1,15.75,6.6Z"/><path class="cls-1" d="M17.81,21.37a2.62,2.62,0,1,0-3.57-1A2.61,2.61,0,0,0,17.81,21.37Zm-1.75-3a.87.87,0,1,1-.31,1.19A.87.87,0,0,1,16.06,18.35Z"/><path class="cls-1" d="M10.84,9.3a2.62,2.62,0,1,0-3.57-1A2.61,2.61,0,0,0,10.84,9.3Zm-1.75-3a.87.87,0,1,1-.31,1.19A.87.87,0,0,1,9.09,6.28Z"/></g></g></svg>